HIERARCHY
ROOT SpineBase
{
  OFFSET 0.000000 0.000000 0.000000
  CHANNELS 6 Xposition Yposition Zposition Zrotation Xrotation Yrotation
  JOINT SpineMid
  {
    OFFSET 0.000000 26.940427 0.000000
    CHANNELS 3 Zrotation Xrotation Yrotation
    JOINT SpineShoulder
    {
      OFFSET 0.062622 20.020299 -0.785191
      CHANNELS 3 Zrotation Xrotation Yrotation
      JOINT Neck
      {
        OFFSET 0.031647 6.664676 -0.592714
        CHANNELS 3 Zrotation Xrotation Yrotation
        JOINT Head
        {
          OFFSET 2.446974 12.140447 0.848727
          CHANNELS 3 Zrotation Xrotation Yrotation
          End Site
          {
            OFFSET 0 0 0
          }
        }
      }
      JOINT ShoulderLeft
      {
        OFFSET -12.435663 -1.901940 -8.260710
        CHANNELS 3 Zrotation Xrotation Yrotation
        JOINT ElbowLeft
        {
          OFFSET -4.126130 -22.221226 -3.804874
          CHANNELS 3 Zrotation Xrotation Yrotation
          JOINT WristLeft
          {
            OFFSET 3.106662 -21.087849 -5.675574
            CHANNELS 3 Zrotation Xrotation Yrotation
            JOINT HandLeft
            {
              OFFSET 0.437787 -4.883276 0.280828
              CHANNELS 3 Zrotation Xrotation Yrotation
              JOINT HandTipLeft
              {
                OFFSET 1.220236 -6.419122 -0.075562
                CHANNELS 3 Zrotation Xrotation Yrotation
                End Site
                {
                  OFFSET 0 0 0
                }
              }
              JOINT ThumbLeft
              {
                OFFSET -2.637637 -1.192458 -2.184813
                CHANNELS 3 Zrotation Xrotation Yrotation
                End Site
                {
                  OFFSET 0 0 0
                }
              }
            }
          }
        }
      }
      JOINT ShoulderRight
      {
        OFFSET 10.902770 -2.905266 3.347405
        CHANNELS 3 Zrotation Xrotation Yrotation
        JOINT ElbowRight
        {
          OFFSET 2.110890 -27.888073 3.368239
          CHANNELS 3 Zrotation Xrotation Yrotation
          JOINT WristRight
          {
            OFFSET 2.280030 -20.459548 -6.592050
            CHANNELS 3 Zrotation Xrotation Yrotation
            JOINT HandRight
            {
              OFFSET -1.947032 -4.051348 -0.185402
              CHANNELS 3 Zrotation Xrotation Yrotation
              JOINT HandTipRight
              {
                OFFSET 0.212329 -4.973466 -0.898775
                CHANNELS 3 Zrotation Xrotation Yrotation
                End Site
                {
                  OFFSET 0 0 0
                }
              }
              JOINT ThumbRight
              {
                OFFSET -2.733455 1.823965 -2.334967
                CHANNELS 3 Zrotation Xrotation Yrotation
                End Site
                {
                  OFFSET 0 0 0
                }
              }
            }
          }
        }
      }
    }
  }
  JOINT HipLeft
  {
    OFFSET -5.636612 1.018493 -5.479612
    CHANNELS 3 Zrotation Xrotation Yrotation
    JOINT KneeLeft
    {
      OFFSET -4.750452 -28.748035 -3.134308
      CHANNELS 3 Zrotation Xrotation Yrotation
      JOINT AnkleLeft
      {
        OFFSET -3.456435 -31.319356 4.235158
        CHANNELS 3 Zrotation Xrotation Yrotation
        JOINT FootLeft
        {
          OFFSET 5.027511 -7.098518 -0.119965
          CHANNELS 3 Zrotation Xrotation Yrotation
          End Site
          {
            OFFSET 0 0 0
          }
        }
      }
    }
  }
  JOINT HipRight
  {
    OFFSET 5.142720 0.809820 -0.698255
    CHANNELS 3 Zrotation Xrotation Yrotation
    JOINT KneeRight
    {
      OFFSET -3.054837 -29.314902 -0.359879
      CHANNELS 3 Zrotation Xrotation Yrotation
      JOINT AnkleRight
      {
        OFFSET -5.622882 -33.804190 2.619099
        CHANNELS 3 Zrotation Xrotation Yrotation
        JOINT FootRight
        {
          OFFSET 3.588901 -2.465691 -8.530744
          CHANNELS 3 Zrotation Xrotation Yrotation
          End Site
          {
            OFFSET 0 0 0
          }
        }
      }
    }
  }
}
MOTION
Frames: 10
Frame Time: 0.033333
20.916214 67.522957 366.348625 -11.455199 -11.344306 -11.239733 -0.912486 -1.579025 9.614143 0.398481 0.384157 -0.566293 -21.914276 22.344379 9.925604 0.000000 0.000000 0.000000 -75.650586 21.114143 39.110402 140.861340 -42.676461 36.889842 -16.621094 9.166560 16.479476 8.750978 -7.224305 -5.281626 0.000000 0.000000 0.000000 0.000000 0.000000 0.000000 16.506767 -8.324098 -1.490203 -66.440268 31.855958 51.046303 26.009819 -6.869420 -22.439303 -1.104389 -20.614980 11.051623 0.000000 0.000000 0.000000 0.000000 0.000000 0.000000 19.188054 19.527001 4.252280 -12.951405 -2.408703 0.602503 15.027676 1.747842 3.703229 0.000000 0.000000 0.000000 14.215965 8.677759 8.578604 -0.482201 8.907588 -1.099350 -4.343886 -5.698665 0.234311 0.000000 0.000000 0.000000
20.107270 66.978990 366.445836 -13.535386 -12.099404 -9.527971 -0.864870 -1.764729 7.475988 0.319781 0.530190 -0.638515 -16.564370 26.539859 9.212012 0.000000 0.000000 0.000000 -73.134495 19.556273 38.722423 138.912993 -43.297332 33.837790 -18.390800 6.436007 17.104413 10.367692 -5.828389 -5.924617 0.000000 0.000000 0.000000 0.000000 0.000000 0.000000 18.474778 -7.430468 -1.723359 -81.079841 31.274785 64.406211 21.539957 -4.797546 -29.761874 2.380970 -15.374342 17.516618 0.000000 0.000000 0.000000 0.000000 0.000000 0.000000 23.392023 20.814215 0.865444 -14.601331 -3.458539 0.650051 17.019032 1.432670 3.484152 0.000000 0.000000 0.000000 18.927312 7.922277 5.908851 -2.863134 11.014177 -1.247530 -5.677449 -9.447031 0.605564 0.000000 0.000000 0.000000
19.223215 66.359510 366.306305 -15.720715 -12.393040 -6.886667 -0.596990 -1.837540 4.405833 0.333348 0.648092 -0.704741 -11.142910 29.193832 7.883543 0.000000 0.000000 0.000000 -70.886029 18.257764 38.094965 137.092344 -43.794685 31.282279 -19.331258 3.742774 17.393182 10.158902 -0.740123 -6.274973 0.000000 0.000000 0.000000 0.000000 0.000000 0.000000 20.204966 -7.030717 -1.867840 -96.703728 27.948050 78.849436 18.893231 -4.329820 -37.593623 -7.186750 -9.086763 23.970359 0.000000 0.000000 0.000000 0.000000 0.000000 0.000000 28.206916 20.708951 -3.240477 -16.257870 -4.329931 0.682734 18.986310 -0.881514 2.188016 0.000000 0.000000 0.000000 25.159157 4.052884 2.701547 -7.249717 16.062050 -1.446748 -4.539779 -10.445380 0.759980 0.000000 0.000000 0.000000
18.325789 65.652883 366.164318 -17.703112 -12.523632 -4.755719 -0.054889 -1.549996 1.925995 0.472078 0.775272 -0.750399 -7.053033 29.846508 6.577848 0.000000 0.000000 0.000000 -70.357972 18.510353 38.438474 138.018810 -43.596313 32.140933 -20.751507 0.206321 17.972764 11.675713 2.984038 -7.100897 0.000000 0.000000 0.000000 0.000000 0.000000 0.000000 21.361249 -7.177286 -1.873828 -109.202851 23.122924 90.619150 18.802649 -5.503738 -44.116438 -16.578386 -1.592738 34.163212 0.000000 0.000000 0.000000 0.000000 0.000000 0.000000 32.542165 20.217846 -6.556244 -18.347013 -4.738252 0.535811 18.942787 -9.133319 -1.827214 0.000000 0.000000 0.000000 30.231306 0.724994 0.328231 -10.692646 19.369850 -1.302360 -6.433888 -17.697985 -2.113563 0.000000 0.000000 0.000000
17.535611 64.939748 366.026074 -19.266291 -12.516952 -3.279893 0.580398 -1.205009 0.203972 0.464533 0.663171 -0.803287 -5.094726 29.965854 6.045550 0.000000 0.000000 0.000000 -71.040403 19.495230 39.659611 140.300607 -43.047056 34.701534 -22.327580 -2.345078 18.460667 14.625265 5.508173 -8.235241 0.000000 0.000000 0.000000 0.000000 0.000000 0.000000 22.210075 -7.333570 -1.864510 -117.272646 18.968343 98.452261 18.943055 -7.561132 -48.864642 -24.491157 -1.433063 38.108567 0.000000 0.000000 0.000000 0.000000 0.000000 0.000000 35.928417 19.730290 -8.883067 -18.308505 -6.308246 0.934905 18.253470 -5.433729 -0.814786 0.000000 0.000000 0.000000 32.218414 1.258293 -1.644482 -10.119547 16.166091 -1.041313 -8.328175 -17.837896 -3.254331 0.000000 0.000000 0.000000
17.009758 64.338296 365.961974 -20.142455 -12.483359 -3.132643 1.153613 -0.690412 -0.034253 0.443559 0.456206 -0.845857 -4.732834 29.324884 5.952061 0.000000 0.000000 0.000000 -72.551189 21.097458 41.299752 143.062406 -42.233633 38.333142 -23.002178 -3.965735 18.704928 15.023304 9.261287 -8.520673 0.000000 0.000000 0.000000 0.000000 0.000000 0.000000 22.520209 -7.628091 -1.801598 -121.467169 16.488104 102.645483 18.845898 -9.271676 -51.663857 -24.212385 -1.258280 40.677481 0.000000 0.000000 0.000000 0.000000 0.000000 0.000000 37.699733 19.661848 -9.553599 -17.994156 -7.237126 1.296904 16.714677 -4.887813 -1.274951 0.000000 0.000000 0.000000 33.124862 2.255158 -2.199985 -9.468670 13.850462 -0.853988 -9.319735 -17.289092 -3.474669 0.000000 0.000000 0.000000
16.842425 63.916355 365.988743 -20.144271 -12.414935 -3.330358 1.657762 -0.046626 0.241135 0.415426 0.170106 -0.863450 -8.008104 27.972618 7.018434 0.000000 0.000000 0.000000 -74.817991 23.109758 43.125596 145.875543 -41.171005 42.468812 -22.798034 -4.591664 18.782626 13.879628 12.339052 -8.198574 0.000000 0.000000 0.000000 0.000000 0.000000 0.000000 22.073526 -8.042092 -1.687083 -122.296929 16.038490 103.515700 18.524223 -9.936628 -52.385843 -22.005659 -1.895697 40.175422 0.000000 0.000000 0.000000 0.000000 0.000000 0.000000 37.747114 19.790536 -9.409302 -17.344759 -7.659453 1.538508 14.477994 -7.453904 -3.136901 0.000000 0.000000 0.000000 32.021088 3.942278 -2.176578 -7.505896 11.046420 -0.698423 -9.820111 -15.224095 -3.073189 0.000000 0.000000 0.000000
16.613235 63.827064 366.163978 -20.322087 -12.667717 -5.218579 1.561205 0.147426 2.083077 0.583124 0.320478 -0.857663 -8.099924 27.846457 7.078219 0.000000 0.000000 0.000000 -75.918696 23.425648 43.997450 147.040742 -40.791334 43.704628 -23.077692 -5.312384 18.776483 14.381226 13.990793 -8.353713 0.000000 0.000000 0.000000 0.000000 0.000000 0.000000 26.055471 -8.905926 -1.371034 -124.450379 17.777815 102.668301 16.582659 -10.784638 -51.901634 -18.375566 -0.821312 39.396906 0.000000 0.000000 0.000000 0.000000 0.000000 0.000000 37.542809 20.688878 -7.935291 -17.464508 -7.055794 1.542125 13.124920 0.668880 1.450852 0.000000 0.000000 0.000000 31.445497 7.341872 -1.088277 -6.171146 7.631578 -0.343241 -9.057451 -10.518305 -2.196051 0.000000 0.000000 0.000000
16.449978 63.668100 366.391446 -20.227788 -12.981974 -7.492231 1.349224 0.352854 4.352121 0.639143 0.369601 -0.856346 -7.791952 27.936452 6.990589 0.000000 0.000000 0.000000 -75.891094 22.868108 43.770433 146.823474 -40.819398 42.876499 -23.606134 -6.082712 18.864712 12.874357 16.444841 -7.534729 0.000000 0.000000 0.000000 0.000000 0.000000 0.000000 25.189843 -8.583805 -1.476800 -122.850327 17.962455 101.676743 15.176319 -10.105717 -52.438853 -16.553073 0.472146 40.740286 0.000000 0.000000 0.000000 0.000000 0.000000 0.000000 36.961914 21.756758 -6.075338 -17.512420 -6.197002 1.568654 12.865302 2.080709 2.467951 0.000000 0.000000 0.000000 30.470356 10.464381 0.522582 -5.279644 5.362540 -0.086372 -9.751953 -9.981349 -0.663377 0.000000 0.000000 0.000000
16.489567 63.566538 366.735241 -19.964489 -13.502843 -8.493133 1.141014 0.679307 5.363226 0.743187 0.373993 -0.854247 -6.721527 27.645742 6.515762 0.000000 0.000000 0.000000 -76.157023 21.023651 42.931250 146.156762 -41.060284 40.333960 -23.572539 -5.472750 18.675718 14.707129 11.155859 -8.367482 0.000000 0.000000 0.000000 0.000000 0.000000 0.000000 14.303953 -5.969779 -2.134299 -109.054279 18.025487 95.978702 17.262549 -7.874804 -49.937186 -16.497061 -0.495526 39.069814 0.000000 0.000000 0.000000 0.000000 0.000000 0.000000 36.260137 22.770969 -5.398947 -17.154436 -5.917120 1.595888 10.687286 -2.522528 0.043288 0.000000 0.000000 0.000000 29.075246 12.744535 1.179467 -4.093463 3.650054 0.108013 -9.872212 -8.199063 1.436158 0.000000 0.000000 0.000000
